<svg id="no-cam" enable-background="new 0 0 300 300" height="512" viewBox="0 0 300 300" width="512" xmlns="http://www.w3.org/2000/svg"><g><path d="m150.002 27.432c-67.586 0-122.57 54.984-122.57 122.568s54.984 122.568 122.57 122.568c67.582 0 122.566-54.984 122.566-122.568s-54.984-122.568-122.566-122.568zm0 8c28.979 0 55.46 10.837 75.658 28.643l-27.357 27.357h-6.805c-.041-.057-.049-.126-.093-.182l-13.075-16.391c-3.766-4.721-9.391-7.428-15.43-7.428h-15.844c-6.621 0-12.766 3.291-16.438 8.803l-10.113 15.197h-4.548v-8c0-2.209-1.789-4-4-4h-24c-2.211 0-4 1.791-4 4v8h-2.055c-7.691 0-13.945 6.256-13.945 13.943v96.113c0 5.482 3.208 10.189 7.822 12.465l-11.705 11.708c-17.806-20.198-28.642-46.68-28.642-75.66 0-63.174 51.394-114.568 114.57-114.568zm-68.098 172c-3.277 0-5.945-2.666-5.945-5.943v-58.057h31.922c-.334 2.147-.559 4.329-.559 6.568 0 9.149 2.92 17.615 7.841 24.571l-32.861 32.861zm48.758-57.432c0-10.662 8.676-19.338 19.34-19.338 2.673 0 5.22.547 7.538 1.533l-25.344 25.344c-.987-2.318-1.534-4.865-1.534-7.539zm38.676 0c0 10.662-8.676 19.338-19.336 19.338-5.065 0-9.644-2-13.095-5.198l27.234-27.234c3.197 3.451 5.197 8.03 5.197 13.094zm-38.111 19.82c4.903 4.646 11.503 7.518 18.775 7.518 15.074 0 27.336-12.264 27.336-27.338 0-7.271-2.871-13.871-7.517-18.774l5.188-5.188c5.974 6.233 9.669 14.667 9.669 23.962 0 19.123-15.555 34.68-34.676 34.68-9.295 0-17.73-3.697-23.963-9.672zm32.259-43.571c-3.984-2.271-8.579-3.587-13.484-3.587-15.074 0-27.34 12.264-27.34 27.338 0 4.905 1.316 9.501 3.587 13.485l-5.335 5.335c-3.523-5.427-5.593-11.881-5.593-18.82 0-19.123 15.559-34.68 34.68-34.68 6.938 0 13.393 2.069 18.819 5.593zm-43.102 54.414c7.683 7.423 18.116 12.017 29.618 12.017 23.531 0 42.676-19.146 42.676-42.68 0-2.239-.225-4.421-.559-6.568h3.135c2.17 4.247 6.541 7.191 11.627 7.191s9.458-2.945 11.627-7.191h9.451v58.057c0 3.277-2.668 5.943-5.945 5.943h-128.399zm81.395-43.14c0-2.812 2.289-5.102 5.102-5.102s5.102 2.289 5.102 5.102-2.289 5.1-5.102 5.1-5.102-2.287-5.102-5.1zm26.18-2.091h-8.188c-1.01-6.228-6.384-11.01-12.89-11.01s-11.88 4.782-12.89 11.01h-3.928c-2.069-5.671-5.283-10.787-9.4-15.048l20.952-20.952h20.398c3.277 0 5.945 2.666 5.945 5.943v30.057zm-53.387-20.269c-6.955-4.921-15.421-7.842-24.57-7.842-18.413 0-34.091 11.741-40.064 28.111h-33.979v-30.057c0-3.277 2.668-5.943 5.945-5.943h108.398zm-66.613-23.731h-16v-4h16zm22.161 0 7.16-10.764c2.184-3.279 5.84-5.236 9.777-5.236h15.843c3.59 0 6.938 1.611 9.176 4.418l9.237 11.582zm19.882 173.136c-31.322 0-59.738-12.645-80.44-33.083l16.053-16.053h136.398c7.691 0 13.945-6.256 13.945-13.943v-96.113c0-7.688-6.254-13.943-13.945-13.943h-12.398l21.87-21.87c20.438 20.702 33.083 49.117 33.083 80.438 0 63.173-51.394 114.567-114.566 114.567z"/></g></svg>